<?xml version="1.0" encoding="UTF-8"?>
<svg width="200px" height="200px" viewBox="0 0 100 100" version="1.1" xmlns="http://www.w3.org/2000/svg" xmlns:xlink="http://www.w3.org/1999/xlink">
    <title>Vesta logo white@3x</title>
    <g id="Final" stroke="none" stroke-width="1" fill="none" fill-rule="evenodd">
        <g id="Grey-colors" transform="translate(-910.000000, -723.000000)">
            <g id="Group-3-Copy-10" transform="translate(0.000000, 512.000000)">
                <g id="Vesta-logo-white" transform="translate(910.000000, 211.000000)">
                    <g id="Group-3">
                        <rect id="Rectangle" x="0" y="0" width="120" height="104"></rect>
                        <g id="Group-2" transform="translate(52.803069, 44.742289) rotate(-114.000000) translate(-52.803069, -44.742289) translate(23.814455, -0.151304)">
                            <path d="M44.7436401,89.787185 C44.3627841,89.4510449 44.1176177,89.2490524 43.8894125,89.0293278 C33.9069765,79.3861158 23.9253116,69.7421329 13.9459595,60.096608 C13.4016592,59.5708109 12.9005329,58.997214 12.3253941,58.5091941 C11.8697547,58.1244833 11.8558773,57.7397725 11.9969637,57.2054948 C13.1564928,52.7886446 14.2905802,48.3656268 15.4308353,43.9441509 C17.0390652,37.7109107 18.6449823,31.4753575 20.2547542,25.2428883 C20.3349344,24.931419 20.4428693,24.6284303 20.5708492,24.2144229 C33.051207,29.5849549 45.464491,34.9269613 57.9772293,40.3121416 C53.5719436,56.7822358 49.185932,73.1798593 44.7436401,89.787185" id="Fill-1" fill="#EBEBEB"></path>
                            <path d="M42.7969571,30.2163741 C35.9153366,27.3468478 29.139338,24.5235793 22.2947237,21.6702432 C24.2653065,14.421644 26.2112185,7.26710234 28.187969,-1.5787365e-14 C35.4072716,0.898943489 42.5911099,1.79249023 49.9353086,2.70608203 C47.5445506,11.9175544 45.189257,20.9956501 42.7969571,30.2163741" id="Fill-2" fill="#2E58AE"></path>
                            <path d="M17.7008362,23.1492279 C15.8389593,30.2922051 13.9948145,37.3634827 12.1483568,44.4463248 C11.298755,44.1256039 1.3067832,36.9499696 -3.81987775e-11,35.7858147 C1.61516862,29.7483992 3.24190169,23.6678098 4.90949583,17.4330276 C9.5221707,19.4930422 13.1390449,21.1131132 17.7008362,23.1492279 Z" id="Fill-3" fill="#FDAC02"></path>
                        </g>
                    </g>
                </g>
            </g>
        </g>
    </g>
</svg>